<svg width="32" height="32" viewBox="0 0 32 32" fill="none" xmlns="http://www.w3.org/2000/svg">
<path d="M16.275 28.0622C12.7063 27.9497 9.31253 27.8622 5.91878 27.731C5.18753 27.6997 4.44378 27.5872 3.73128 27.4185C2.39378 27.106 1.46878 26.2997 0.993779 24.981C0.612529 23.9185 0.475029 22.8247 0.375029 21.7122C0.156279 19.0997 0.156278 16.4872 0.262529 13.8747C0.325029 12.3997 0.362529 10.9122 0.756279 9.481C0.993779 8.62475 1.28128 7.78725 1.97503 7.1685C2.70628 6.51225 3.56253 6.1185 4.53753 6.07475C7.21253 5.9435 9.88128 5.781 12.5563 5.756C16.1563 5.7185 19.7625 5.7685 23.3625 5.83725C24.9188 5.8685 26.4875 5.94975 28.0313 6.14975C29.4438 6.33725 30.5 7.12475 31.0625 8.49975C31.4938 9.556 31.6563 10.6622 31.75 11.7872C31.9938 14.606 32 17.4247 31.8625 20.2435C31.7938 21.6747 31.725 23.1122 31.3188 24.506C30.8563 26.106 29.875 27.1622 28.2375 27.5247C27.6 27.6622 26.9375 27.7122 26.2875 27.7372C22.8875 27.856 19.4938 27.9622 16.275 28.0622ZM12.8188 20.956C15.6688 19.481 18.4875 18.0185 21.3625 16.5247C18.4938 15.0247 15.675 13.556 12.8188 12.0622C12.8188 15.0435 12.8188 17.9747 12.8188 20.956Z" fill="black"/>
</svg>
