<?xml version="1.0" ?><svg data-name="Layer 1" height="88" id="Layer_1" viewBox="0 0 88 88" width="88" xmlns="http://www.w3.org/2000/svg"><title/><rect height="1.9" width="1.87" x="32.37" y="62.44"/><path d="M38.17,62.43H36.24c0,.57,0,1.1,0,1.64,0,.24.09.3.31.29.54,0,1.07,0,1.63,0v2H28.45v-2h1.92V62.43H28.42V48.88H26.51V71a2.58,2.58,0,0,0,0,.39.93.93,0,0,0,.82.74,1,1,0,0,0,1-.65,2.32,2.32,0,0,0,.05-.53v-1.7h2v1.39c0,.21,0,.41,0,.62a.91.91,0,0,0,.88.87.94.94,0,0,0,1-.86c0-.31,0-.62,0-.93v-1.1h1.95v.91a11.16,11.16,0,0,0,0,1.16.89.89,0,0,0,1,.82.93.93,0,0,0,.85-.93c0-.28,0-.57,0-.85V69.27h2v2a.91.91,0,0,0,1,.9c.57,0,.91-.43.91-1.1V66.57q0-4,0-8c0-2.83,0-5.66,0-8.49v-1.2H38.17Z"/><path d="M22.45,39.16q-.78,0-1.56,0a.24.24,0,0,0-.17.17q0,.78,0,1.56c0,.07.09.18.14.18h1.77c0-.61,0-1.18,0-1.77C22.62,39.26,22.51,39.16,22.45,39.16Z"/><path d="M49.88,44.78a15.49,15.49,0,0,0,5.3-5.1,15.4,15.4,0,0,0,2.39-7.54,15.52,15.52,0,0,0-14.3-16.26h0A15.54,15.54,0,0,0,26.92,27.8a15.92,15.92,0,0,0-.4,3.3c0,.14,0,.26.17.26h1.73a1,1,0,0,0,0-.17,13.67,13.67,0,0,1,1.23-5.45,13.16,13.16,0,0,1,2.78-4,13.61,13.61,0,0,1,23.18,8.84,13.19,13.19,0,0,1-.92,5.79,13.72,13.72,0,0,1-7.7,7.7,14,14,0,0,1-5.12.94H22.63v-.3c0-.47,0-.93,0-1.39,0-.08-.07-.24-.11-.24H20.7V45H18.77v-9.7h1.94v1.3c0,.62,0,.62.73.62h1.2V35.25H41.9a3.82,3.82,0,0,0,3.46-1.88,3.45,3.45,0,0,0,.3-.61A3.87,3.87,0,0,0,39,28.93a3.63,3.63,0,0,0-.84,2.4h1.9s0,0,0-.08A2,2,0,0,1,43,29.65a2,2,0,0,1,.62,2.86,2.06,2.06,0,0,1-1.72.82c-1.39,0-2.78,0-4.17,0h-15l-6.15,0c-.91,0-1.82,0-2.73,0h-.05a.91.91,0,0,0-.85,1v0a.93.93,0,0,0,.95.92h2c0,.58,0,1.11,0,1.63,0,.29-.09.35-.36.34-.58,0-1.17,0-1.75,0a.86.86,0,0,0-.81.95.92.92,0,0,0,.86.93h2v1.94l-.22,0c-.57,0-1.15,0-1.73,0H13.8A1,1,0,0,0,13.89,43h1.94c0,.6,0,1.14,0,1.69,0,.22-.06.29-.28.29H13.87a.91.91,0,0,0-1,.94,1,1,0,0,0,1,1c.63,0,1.26,0,1.9,0,1,0,2,0,3.08,0H34.39l4.76,0c.7,0,1.41,0,2.12,0a17.62,17.62,0,0,0,4.1-.34A16,16,0,0,0,49.88,44.78Z"/><path d="M75.07,66.22a1.65,1.65,0,0,0-.86-1.48,8.39,8.39,0,0,0-1.08-.42c0-.6,0-1.26,0-1.91a14.3,14.3,0,0,0-1-6.17A13.88,13.88,0,0,0,69.32,52a13.38,13.38,0,0,0-3.85-2.78c-.45-.22-.91-.41-1.38-.62h0a4.89,4.89,0,0,0-1.75-5.7,4.81,4.81,0,0,0-5.17-.25c-2.28,1.39-2.86,3.46-2.19,6l-.23.1a13.72,13.72,0,0,0-7.22,6.36A13.29,13.29,0,0,0,46,61.51V64.4l-.36,0A1.83,1.83,0,0,0,44,66.2c0,1.4,0,2.8,0,4.19A1.76,1.76,0,0,0,45,71.91a2.31,2.31,0,0,0,1.31.26H66.47c2.24,0,4.48,0,6.72,0a1.94,1.94,0,0,0,1.88-1.87C75.07,68.94,75.1,67.58,75.07,66.22ZM59.53,44h0a2.92,2.92,0,1,1-2.92,3A3,3,0,0,1,59.53,44Zm-1.42,7.83a.29.29,0,0,1,.36-.17,4.51,4.51,0,0,0,2.13,0,.28.28,0,0,1,.36.16,17.76,17.76,0,0,1,2.3,6.54,33,33,0,0,1,.18,4.44v1.61h-7.8v-.88c0-1.33,0-2.66.06-4a15.84,15.84,0,0,1,.79-4.09A18.19,18.19,0,0,1,58.11,51.81Zm-10.21,9A11.21,11.21,0,0,1,48.78,57,11.56,11.56,0,0,1,53,51.81a11.42,11.42,0,0,1,2.89-1.42c.29-.1.39.12.53.26s0,.23-.07.33a21.59,21.59,0,0,0-1.63,3.6,19.77,19.77,0,0,0-1,6.56v3.25H47.88v-.82C47.89,62.65,47.86,61.71,47.9,60.78Zm22.33,8.44V67.66c0-.37,0-.37-.37-.37H68.31v1.92H65.37V67.3c-.62,0-1.19,0-1.77,0-.05,0-.15.14-.15.22,0,.46,0,.91,0,1.36v.33H60.52V67.76c0-.53,0-.46-.45-.46H59c-.39,0-.39,0-.39.39v1.22c0,.1,0,.2,0,.31H55.65c0-.53,0-1.06,0-1.59,0-.27-.08-.35-.35-.34-.52,0-1,0-1.58,0v1.93H50.78V67.69c0-.4,0-.4-.4-.4s-.81,0-1.22,0c-.23,0-.31.06-.3.3,0,.54,0,1.08,0,1.63H46V66.34H69.23V64.41H65.34c0-.67,0-1.31,0-1.95,0-1.18,0-2.38-.07-3.57a17.21,17.21,0,0,0-.8-4,19.5,19.5,0,0,0-1.86-4.14s0,0,0-.08c.4-.41.4-.41.92-.21a11.65,11.65,0,0,1,3.81,2.28A11.39,11.39,0,0,1,70,56.38a11,11,0,0,1,1.11,3.95c0,.48.08,1,.08,1.44,0,1.4,0,2.81,0,4.22,0,.27.07.36.35.35.52,0,1,0,1.58,0v2.89Z"/></svg>