<?xml version="1.0" ?><svg xmlns="http://www.w3.org/2000/svg" xmlns:xlink="http://www.w3.org/1999/xlink" version="1.1" viewBox="0 0 64 64" style="enable-background:new 0 0 64 64;" xml:space="preserve"><g id="canned_drink"/><g id="canned_food"/><g id="loaction"/><g id="grilled_chicken"/><g id="car"><g><path d="M58,28c-0.4,0-0.7,0.1-1,0.2V26c0-2.8-2.3-5-5-5h-0.2c0.1-0.3,0.2-0.6,0.2-1v-2c0-1.7-1.3-3-3-3h-1.2    c0.1-0.3,0.2-0.6,0.2-1v-2c0-1.7-1.3-3-3-3H33c-1.7,0-3,1.3-3,3v2c0,0.4,0.1,0.7,0.2,1H29c-1.7,0-3,1.3-3,3v2c0,0.4,0.1,0.7,0.2,1    H23c-2.2,0-4.1,1.4-4.8,3.5l-3,9.6l-9.9,2.5C3.9,37,3,38.2,3,39.6V47c0,1.7,1.3,3,3,3h4.1c0.5,2.8,2.9,5,5.9,5s5.4-2.2,5.9-5h17.2    c0.5,2.8,2.9,5,5.9,5s5.4-2.2,5.9-5H54c1.7,0,3-1.3,3-3v-3.2c0.3,0.1,0.6,0.2,1,0.2c1.7,0,3-1.3,3-3V31C61,29.3,59.7,28,58,28z     M32,14v-2c0-0.6,0.4-1,1-1h12c0.6,0,1,0.4,1,1v2c0,0.6-0.4,1-1,1H33C32.4,15,32,14.6,32,14z M28,20v-2c0-0.6,0.4-1,1-1h4h12h4    c0.6,0,1,0.4,1,1v2c0,0.6-0.4,1-1,1H29C28.4,21,28,20.6,28,20z M5.8,38.6L8,38v3H5v-1.4C5,39.1,5.3,38.7,5.8,38.6z M16,53    c-2.2,0-4-1.8-4-4s1.8-4,4-4s4,1.8,4,4S18.2,53,16,53z M45,53c-2.2,0-4-1.8-4-4s1.8-4,4-4s4,1.8,4,4S47.2,53,45,53z M55,47    c0,0.6-0.4,1-1,1h-3.1c-0.5-2.8-2.9-5-5.9-5s-5.4,2.2-5.9,5H21.9c-0.5-2.8-2.9-5-5.9-5s-5.4,2.2-5.9,5H6c-0.6,0-1-0.4-1-1v-4h4    c0.6,0,1-0.4,1-1v-4.5l6.2-1.6c0.3-0.1,0.6-0.3,0.7-0.7l3.1-10.2c0.4-1.3,1.6-2.1,2.9-2.1h6h20h3c1.7,0,3,1.4,3,3v5v10V47z M59,41    c0,0.6-0.4,1-1,1s-1-0.4-1-1V31c0-0.6,0.4-1,1-1s1,0.4,1,1V41z"/><circle cx="45" cy="49" r="2"/><circle cx="16" cy="49" r="2"/><path d="M42,18h-6c-0.6,0-1,0.4-1,1s0.4,1,1,1h6c0.6,0,1-0.4,1-1S42.6,18,42,18z"/><path d="M41,12h-4c-0.6,0-1,0.4-1,1s0.4,1,1,1h4c0.6,0,1-0.4,1-1S41.6,12,41,12z"/><path d="M34,25H23c-0.4,0-0.8,0.3-0.9,0.7l-3,9c-0.1,0.3-0.1,0.6,0.1,0.9c0.2,0.3,0.5,0.4,0.8,0.4h14c0.6,0,1-0.4,1-1v-9    C35,25.4,34.6,25,34,25z M33,34H21.4l2.3-7H33V34z"/><path d="M52,25H38c-0.6,0-1,0.4-1,1v9c0,0.6,0.4,1,1,1h14c0.6,0,1-0.4,1-1v-9C53,25.4,52.6,25,52,25z M51,34H39v-7h12V34z"/></g></g><g id="backpack"/><g id="picnic_table"/><g id="picnic_basket"/><g id="sand_beach"/><g id="bonfire"/><g id="tent"/><g id="portable_grill"/><g id="portable_stove"/><g id="signpost"/><g id="park"/><g id="hammock"/><g id="forest"/><g id="hill"/><g id="beach"/><g id="camping"/></svg>