<?xml version="1.0" ?><svg xmlns="http://www.w3.org/2000/svg" xmlns:xlink="http://www.w3.org/1999/xlink" version="1.1" viewBox="0 0 64 64" style="enable-background:new 0 0 64 64;" xml:space="preserve"><g id="canned_drink"/><g id="canned_food"/><g id="loaction"/><g id="grilled_chicken"/><g id="car"/><g id="backpack"><g><path d="M58,35h-4c-0.4,0-0.7,0.1-1,0.2V19.1c0-3.4-2.7-6.1-6.1-6.1H42c0-5.5-4.5-10-10-10S22,7.5,22,13h-4.9    c-3.4,0-6.1,2.7-6.1,6.1v16.1c-0.3-0.1-0.6-0.2-1-0.2H6c-1.7,0-3,1.3-3,3v12c0,1.7,1.3,3,3,3h4c0,0,0,0,0,0c-0.6,0.8-1,1.9-1,3    c0,2.8,2.2,5,5,5h36c2.8,0,5-2.2,5-5c0-1.1-0.4-2.2-1-3c0,0,0,0,0,0h4c1.7,0,3-1.3,3-3V38C61,36.3,59.7,35,58,35z M13,51v-1V38    v-9.6c2.9,3.5,7.2,5.6,11.9,5.6h14.1c4.7,0,9-2.1,11.9-5.6V38v12v1h-1H14H13z M32,5c4.4,0,8,3.6,8,8h-2c0-3.3-2.7-6-6-6    s-6,2.7-6,6h-2C24,8.6,27.6,5,32,5z M28,13c0-2.2,1.8-4,4-4s4,1.8,4,4H28z M17.1,15h29.8c2.3,0,4.1,1.9,4.1,4.1v5.6    c-2.3,4.5-6.9,7.3-11.9,7.3H24.9c-5.1,0-9.6-2.8-11.9-7.3v-5.6C13,16.9,14.9,15,17.1,15z M6,51c-0.6,0-1-0.4-1-1V38    c0-0.6,0.4-1,1-1h4c0.6,0,1,0.4,1,1v12c0,0.6-0.4,1-1,1H6z M50,59H14c-1.7,0-3-1.3-3-3s1.3-3,3-3h36c1.7,0,3,1.3,3,3    S51.7,59,50,59z M59,50c0,0.6-0.4,1-1,1h-4c-0.6,0-1-0.4-1-1V38c0-0.6,0.4-1,1-1h4c0.6,0,1,0.4,1,1V50z"/><path d="M32,30c1.7,0,3-1.3,3-3s-1.3-3-3-3s-3,1.3-3,3S30.3,30,32,30z M32,26c0.6,0,1,0.4,1,1s-0.4,1-1,1s-1-0.4-1-1    S31.4,26,32,26z"/><path d="M47,38H17c-0.6,0-1,0.4-1,1v8c0,0.6,0.4,1,1,1h30c0.6,0,1-0.4,1-1v-8C48,38.4,47.6,38,47,38z M46,46H18v-6h28V46z"/></g></g><g id="picnic_table"/><g id="picnic_basket"/><g id="sand_beach"/><g id="bonfire"/><g id="tent"/><g id="portable_grill"/><g id="portable_stove"/><g id="signpost"/><g id="park"/><g id="hammock"/><g id="forest"/><g id="hill"/><g id="beach"/><g id="camping"/></svg>