<svg width="40" height="40" viewBox="0 0 40 40" fill="none" xmlns="http://www.w3.org/2000/svg">
<path d="M18.3334 5.00001V30.9767L9.51178 22.155C8.86095 21.5042 7.80595 21.5042 7.15512 22.155C6.50428 22.8058 6.50428 23.8613 7.15512 24.5121L18.8218 36.1788C19.4726 36.8296 20.528 36.8296 21.1784 36.1788L32.8451 24.5121C33.1705 24.1867 33.3335 23.76 33.3335 23.3333C33.3335 22.9071 33.1705 22.4804 32.8451 22.155C32.1943 21.5042 31.1389 21.5042 30.4884 22.155L21.6668 30.9767V5.00001C21.6668 4.08001 20.9205 3.33334 20.0001 3.33334C19.0797 3.33334 18.3334 4.07959 18.3334 5.00001Z" fill="#E5E5E5"/>
</svg>
