<svg width="25" height="25" viewBox="0 0 25 25" fill="none" xmlns="http://www.w3.org/2000/svg">
<g clip-path="url(#clip0_236_92)">
<path d="M24.0385 5.92308H0.961538C0.706523 5.92308 0.461951 5.82177 0.281628 5.64145C0.101305 5.46113 0 5.21655 0 4.96154C0 4.70652 0.101305 4.46195 0.281628 4.28163C0.461951 4.1013 0.706523 4 0.961538 4H24.0385C24.2935 4 24.538 4.1013 24.7184 4.28163C24.8987 4.46195 25 4.70652 25 4.96154C25 5.21655 24.8987 5.46113 24.7184 5.64145C24.538 5.82177 24.2935 5.92308 24.0385 5.92308Z" fill="#E5E5E5"/>
<path d="M24.0385 12.6539H0.961538C0.706523 12.6539 0.461951 12.5525 0.281628 12.3722C0.101305 12.1919 0 11.9473 0 11.6923C0 11.4373 0.101305 11.1927 0.281628 11.0124C0.461951 10.8321 0.706523 10.7308 0.961538 10.7308H24.0385C24.2935 10.7308 24.538 10.8321 24.7184 11.0124C24.8987 11.1927 25 11.4373 25 11.6923C25 11.9473 24.8987 12.1919 24.7184 12.3722C24.538 12.5525 24.2935 12.6539 24.0385 12.6539Z" fill="#E5E5E5"/>
<path d="M24.0385 19.3846H0.961538C0.706523 19.3846 0.461951 19.2833 0.281628 19.103C0.101305 18.9227 0 18.6781 0 18.4231C0 18.1681 0.101305 17.9235 0.281628 17.7432C0.461951 17.5629 0.706523 17.4615 0.961538 17.4615H24.0385C24.2935 17.4615 24.538 17.5629 24.7184 17.7432C24.8987 17.9235 25 18.1681 25 18.4231C25 18.6781 24.8987 18.9227 24.7184 19.103C24.538 19.2833 24.2935 19.3846 24.0385 19.3846Z" fill="#E5E5E5"/>
</g>
<defs>
<clipPath id="clip0_236_92">
<rect width="25" height="25" fill="white"/>
</clipPath>
</defs>
</svg>
