<?xml version="1.0" encoding="UTF-8"?>
<!-- Generator: Adobe Illustrator 19.2.0, SVG Export Plug-In . SVG Version: 6.00 Build 0)  -->
<svg version="1.1" id="Layer_1" xmlns="http://www.w3.org/2000/svg" xmlns:xlink="http://www.w3.org/1999/xlink" x="0px" y="0px" viewBox="0 0 308 58" style="enable-background:new 0 0 308 58;" xml:space="preserve">
<style type="text/css">
	.st0{fill:#9FC54D;}
	.st1{fill:#5A666F;}
</style>
<g>
	<g>
		<path class="st0" d="M125.2,12.2l-27.1,0c-4.6,0-5.5,1.1-6.6,5.1c-1.2,4.9-3.3,12.6-4.8,18.4c-1.2,4.4,0.8,6.3,5,6.3l25.9,0    c4.3,0.1,6.2-0.8,7.7-6.6l4.3-16.6C130.5,15,130,12.2,125.2,12.2z M121.6,18.6c-0.6,2.3-4,15.6-4,15.6c-0.8,3.2-1.5,4-3.9,4H97.1    c-2,0-3-0.6-2.3-3.5c0.8-3,3.3-12.4,4.2-15.8c0.8-2.6,1.4-2.9,3.2-2.9c2.4,0,14.8,0,17.8,0C121.4,16,122.2,16.4,121.6,18.6z"/>
		<path class="st0" d="M32,42l8,0c1.2-4.6,6-23.3,6-23.3c0.8-2.9-1-6.4-6.1-6.4l-23.2,0c-6.6,0-8.1,1.8-9.3,6.7    c-1.1,4.3-4.7,18.1-6,23l8,0c1.3-4.8,5.1-19.7,5.6-21.3c0.9-3.4,0.8-4.7,3.3-4.7c3.6,0,18.2,0,18.2,0c1.1,0,2.2,0.3,1.6,2.6    C37.7,20.4,32.9,38.5,32,42z"/>
		<path class="st0" d="M81.7,12.3l-23.1,0c-6.6,0-7.9,0.9-9.4,6.8c-0.1,0.5-5,19.3-5,19.3h0v0.1l-1.8,6.9h0    c-1.4,5.5-2.5,9.8-2.5,9.8l8,0l3.4-13H66l9.8,0c4.3,0,5.9,0,7.5-5.6l4.5-17.6C88.8,14.7,86.7,12.2,81.7,12.3z M79.8,18.8    c-0.6,2.2-4.3,16.6-4.3,16.6c-0.6,2.2-1.1,2.9-3.4,2.8l-19.9,0c0,0,4.5-17.4,5-19.1c0.6-2,1-3.2,2.9-3.2c3.5,0,3.5,0,18.1,0    C79.3,15.9,80.4,16.5,79.8,18.8z"/>
		<path class="st0" d="M168.7,12.2l-29,0c-3.8,0-5.5,0.7-6.2,3.7c0,0.1-0.1,0.2-0.1,0.3h0l-4.9,18.8h0c-0.8,3.3-0.4,6.9,4.6,6.9    l31.8,0l1-3.7l-28.1,0c-1.5,0-2-0.4-1.7-1.8c0.4-1.6,1.2-4.6,1.7-6.4h25.8v0h0.2c3.2,0,4.7-0.4,5.6-3.8c0.2-0.5,2.3-9.2,2.6-10.3    C172.5,13.9,171.7,12.2,168.7,12.2z M163.4,18.1c-0.4,1.4-1,3.8-1.4,5.6c-0.6,2.3-1.2,2.6-2.8,2.7h-20.5l1.5-5.6    c0.2-0.9,0.5-1.7,0.7-2.5c0.6-2.4,1.6-2.3,3.1-2.3c1.6,0,18.1,0,18.1,0C163.4,15.9,163.8,16.7,163.4,18.1z"/>
		<path class="st0" d="M281.9,2.9l-8.4,6.2c2.6,0,3.3,0.8,2.9,2.2c-1.4,5.6-7.8,30.6-7.8,30.6l7.6,0l10.3-39L281.9,2.9z"/>
		<path class="st0" d="M265.4,2.9L257,9.2c2.6,0,3.2,0.7,2.9,2.2c-1.5,5.5-7.9,30.5-7.9,30.5l7.6,0l10.3-39L265.4,2.9z"/>
		<path class="st0" d="M298.3,2.9L290,9.2c2.6,0,3.3,0.7,2.9,2.2c-1.5,5.6-7.9,30.6-7.9,30.6l7.6,0l10.3-39L298.3,2.9z"/>
		<polygon class="st0" points="242.9,15.9 243.8,12.2 210,12.2 208.9,15.9 222,15.9 215.2,41.9 223.2,41.9 230,15.9   "/>
		<path class="st0" d="M207.6,12l-6.3,0c-2.8,2.1-16.2,11.7-18.6,13.4c-1.7,1.2-1.1,3-0.5,3.7c3.3,3.8,11.1,12.7,11.1,12.7l12.4,0    c0,0-9.9-11-13.6-15.2c-0.5-0.5-2.2-1.9-0.2-3.2L207.6,12z"/>
		<polygon class="st0" points="175.9,12 168.2,41.8 176.2,41.8 183.9,12   "/>
	</g>
	<g>
		<path class="st1" d="M59.6,47.9h-4.1L53.7,55h2.1l1.4-5.6h1.9c0.7,0,1.2,0.1,1.4,0.3c0.2,0.2,0.2,0.6,0,1.2l-1,4.1h2.1l1-4.1    c0.2-0.9,0.2-1.6-0.2-2.1C61.9,48.2,61,47.9,59.6,47.9z"/>
		<path class="st1" d="M72.7,51.6c0.3-1.1,0.1-1.9-0.4-2.6c-0.6-0.8-1.7-1.2-3.3-1.2c-2.9,0-4.9,1.4-5.5,3.7c-0.2,1-0.1,1.8,0.4,2.4    c0.6,0.8,1.8,1.2,3.4,1.2C70.1,55.1,72.1,53.8,72.7,51.6z M65.7,51.6c0.4-1.4,1.5-2.2,3.1-2.2c0.8,0,1.4,0.2,1.7,0.6    c0.3,0.3,0.3,0.9,0.2,1.5c-0.4,1.4-1.4,2.1-3.1,2.1c-0.8,0-1.4-0.2-1.7-0.5C65.5,52.7,65.5,52.2,65.7,51.6z"/>
		<path class="st1" d="M75.7,47.9l-0.9,3.7c-0.3,1.2-1.1,1.8-1.4,2c-0.9,0-1.4,0.4-1.6,1.1l-0.4,1.7h1.9l0.3-1.1    c0-0.1,0.1-0.3,0.6-0.3h6c0.3,0,0.3,0,0.3,0.1l-0.3,1.3h1.9l0.4-1.5c0.1-0.4,0.1-0.6-0.1-0.9c-0.2-0.2-0.4-0.3-0.8-0.4l1.4-5.7    H75.7z M76.8,51.8l0.6-2.4h3.1l-1.1,4.3h-3.7C76.1,53.2,76.6,52.6,76.8,51.8z"/>
		<path class="st1" d="M92.1,48.6c-0.4-0.5-1.2-0.7-2.7-0.7h-4.5l-0.4,1.5h4.3c0.4,0,1.3,0,1.5,0.2c0.1,0.1,0,0.6-0.1,0.9l-2.8,0    c-2.5,0-3.7,0.6-4.1,2.2c-0.1,0.6-0.1,1.1,0.2,1.4C84,54.7,85,55,86.5,55h4.7l1.1-4.4C92.4,49.9,92.5,49.2,92.1,48.6z M86.5,53.5    c-0.8,0-1.1-0.1-1.2-0.3c-0.1-0.1-0.1-0.2,0-0.5c0.1-0.4,0.3-0.9,1.8-0.9h2.7l-0.4,1.6H86.5z"/>
		<path class="st1" d="M98.9,47.9h-4.3l-2.3,9.2h2.1l0.5-2.1h2.3c2.4,0,4.1-1.3,4.7-3.5c0.3-1.1,0.2-2-0.3-2.6    C101,48.2,100.1,47.9,98.9,47.9z M97.8,49.4c1,0,1.6,0.2,1.8,0.5c0.2,0.3,0.2,0.7,0.1,1.4c-0.4,1.5-0.9,2.2-3.1,2.2h-1.4l1-4.1    H97.8z"/>
		<path class="st1" d="M108.2,50.5l4-2.6h-2.9l-3.7,2.6h-0.2l0.7-2.6H104l-1.8,7.1h2.1l0.8-3.1h1.5c0.8,0,1.7,0,1.9,0.3    c0.1,0.1,0.1,0.3,0,0.7L108,55h2.1l0.5-1.9c0.2-0.7,0.1-1.3-0.2-1.7C109.9,50.8,109.2,50.6,108.2,50.5z"/>
		<polygon class="st1" points="114.1,52.4 115.3,47.9 113.2,47.9 111.4,55 113.4,55 118.3,50.5 117.2,55 119.2,55 121,47.9     119,47.9   "/>
		<path class="st1" d="M134.1,53.6l1.4-5.7h-7.3l-0.9,3.7c-0.3,1.2-1.1,1.8-1.4,2c-0.9,0-1.4,0.4-1.6,1.1l-0.4,1.7h1.9l0.3-1.1    c0-0.1,0.1-0.3,0.6-0.3h6c0.3,0,0.3,0,0.3,0.1l-0.3,1.3h1.9l0.4-1.5c0.1-0.4,0-0.6-0.1-0.9C134.8,53.8,134.5,53.7,134.1,53.6z     M129.4,51.8l0.6-2.4h3.1l-1.1,4.3h-3.7C128.7,53.2,129.2,52.6,129.4,51.8z"/>
		<path class="st1" d="M142.1,47.9c-2.5,0-3.8,0.8-4.3,2.8l-0.5,1.9c-0.2,0.7-0.4,0.9-1.1,0.9l-0.3,0l-0.4,1.5l0.5,0    c2.4-0.1,3.1-1.5,3.4-2.7l0.3-1.3c0.3-1.3,0.9-1.7,2.3-1.7h1.3L142,55h2.1l1.8-7.1H142.1z"/>
		<path class="st1" d="M146.3,50.3c-0.1,0.5-0.1,1,0.2,1.4c0.1,0.2,0.3,0.3,0.4,0.5c-0.4,0.2-0.8,0.5-1,1l-0.4,1.8h2l0.4-1.6    c0.1-0.5,0.5-0.6,1.5-0.6h2.6l-0.5,2.2h2.1l1.8-7.1h-4.8C147.8,47.9,146.6,49.2,146.3,50.3z M149.6,51.4c-0.6,0-1-0.1-1.2-0.4    c-0.1-0.1-0.1-0.3-0.1-0.5c0.2-0.7,0.9-1.2,2-1.2h2.6l-0.5,2H149.6z"/>
		<path class="st1" d="M167.3,47.6l0.4-1.5h-2.4c-3.7,0-5.9,1.6-6.7,5l-0.1,0.5c-0.2,0.9-0.1,1.7,0.4,2.4c0.6,0.8,1.6,1.1,3,1.1    c2.5,0,4.4-1.2,4.9-3.2c0.2-0.9,0.1-1.7-0.3-2.3c-0.6-0.7-1.6-1.1-3-1.1c-0.8,0-1.5,0.2-2.2,0.5c0.7-1,2.1-1.5,3.9-1.5H167.3z     M164.8,51.8c-0.3,1.1-1.3,1.8-2.7,1.8c-0.7,0-1.2-0.2-1.4-0.5c-0.2-0.3-0.3-0.7-0.1-1.1c0.3-1.1,1.3-1.8,2.6-1.8    c0.7,0,1.2,0.2,1.5,0.5C164.9,50.9,164.9,51.3,164.8,51.8z"/>
		<polygon class="st1" points="175,47.9 170.1,52.4 171.2,47.9 169.2,47.9 167.4,55 169.4,55 174.2,50.5 173.1,55 175.2,55     177,47.9   "/>
		<path class="st1" d="M181.8,47.9h-3.5l-0.4,1.5h3.7c0.9,0,1.2,0.2,1.3,0.3c0,0,0.1,0.1,0,0.3c-0.1,0.5-0.5,0.6-1.5,0.6h-2.2    l-0.4,1.4h2.4c0.7,0,1.1,0.1,1.3,0.3c0,0.1,0.1,0.2,0.1,0.4c-0.1,0.4-0.4,0.9-1.9,0.9h-4.1l-0.4,1.4h4.3c3.2,0,3.9-1.5,4.1-2.1    c0.2-0.8-0.2-1.3-0.7-1.7c0.4-0.2,0.9-0.5,1.1-1.1c0.1-0.6,0.1-1.1-0.2-1.4C184.2,48.1,183.3,47.9,181.8,47.9z"/>
		<polygon class="st1" points="192.1,50.4 188.4,50.4 189,47.9 187,47.9 185.2,55 187.3,55 188,51.9 191.7,51.9 190.9,55 193,55     194.8,47.9 192.7,47.9   "/>
		<path class="st1" d="M200.2,47.9c-2.6,0-4.5,1.3-5.1,3.6c-0.3,1.1-0.2,1.9,0.3,2.5c0.5,0.7,1.5,1,3.1,1h3.5l0.4-1.5h-3.3    c-1.1,0-1.7-0.2-1.9-0.5c-0.2-0.2-0.2-0.5-0.1-1h6.3l0.1-0.4c0.3-1.2,0.2-2.1-0.3-2.7C202.7,48.2,201.7,47.9,200.2,47.9z     M197.5,50.6c0.5-0.9,1.2-1.2,2.5-1.2c0.7,0,1.2,0.1,1.4,0.4c0.1,0.2,0.2,0.5,0.1,0.8H197.5z"/>
		<path class="st1" d="M206.5,53.1c-0.2-0.3-0.2-0.8,0-1.5c0.4-1.6,1.2-2.2,3-2.2h2.8l0.4-1.5h-3c-2.8,0-4.8,1.3-5.3,3.6    c-0.3,1-0.2,1.8,0.3,2.4c0.6,0.7,1.7,1.1,3.4,1.1h2.8l0.4-1.5h-3C207.3,53.5,206.7,53.4,206.5,53.1z"/>
		<path class="st1" d="M220.9,48.6c-0.4-0.5-1.2-0.7-2.7-0.7h-4.5l-0.4,1.5h4.3c0.4,0,1.3,0,1.5,0.2c0.1,0.1,0,0.6-0.1,0.9l-2.8,0    c-2.5,0-3.7,0.6-4.1,2.2c-0.1,0.6-0.1,1.1,0.2,1.4c0.5,0.6,1.4,0.9,2.9,0.9h4.7l1.1-4.4C221.2,49.9,221.3,49.2,220.9,48.6z     M215.3,53.5c-0.8,0-1.1-0.1-1.2-0.3c-0.1-0.1-0.1-0.2,0-0.5c0.1-0.6,0.5-0.9,1.8-0.9h2.7l-0.4,1.6H215.3z"/>
	</g>
</g>
</svg>