<svg width="40" height="40" viewBox="0 0 40 40" fill="none" xmlns="http://www.w3.org/2000/svg">
<g clip-path="url(#clip0_262_103)">
<path d="M39.7879 29.1998C39.7395 29.0954 39.6944 29.0088 39.6524 28.9394C38.9584 27.6895 37.6322 26.1553 35.6746 24.3365L35.6332 24.2948L35.6125 24.2744L35.5916 24.2534H35.5706C34.6821 23.4065 34.1195 22.837 33.8839 22.5454C33.4527 21.99 33.3562 21.4278 33.5918 20.8582C33.7582 20.4278 34.3835 19.5189 35.4662 18.1303C36.0357 17.3943 36.4867 16.8045 36.8197 16.3601C39.2219 13.1666 40.2633 11.1259 39.9438 10.2372L39.8198 10.0295C39.7364 9.90449 39.5212 9.79011 39.1745 9.6858C38.827 9.58171 38.3828 9.56449 37.8412 9.63386L31.8434 9.6753C31.7462 9.64087 31.6075 9.64408 31.4267 9.6858C31.2462 9.72753 31.1559 9.74846 31.1559 9.74846L31.0515 9.80062L30.9686 9.86328C30.8992 9.90471 30.8228 9.97758 30.7394 10.0817C30.6565 10.1855 30.5871 10.3074 30.5317 10.4462C29.8787 12.1262 29.1362 13.6881 28.303 15.132C27.7892 15.993 27.3174 16.7391 26.8865 17.3709C26.4562 18.0025 26.0952 18.4678 25.8039 18.7661C25.5121 19.0646 25.2488 19.3038 25.0123 19.4845C24.7762 19.6653 24.5959 19.7416 24.4711 19.7137C24.346 19.6858 24.2282 19.658 24.1167 19.6303C23.9224 19.5053 23.7662 19.3353 23.6483 19.1201C23.53 18.9049 23.4504 18.634 23.4087 18.3078C23.3673 17.9813 23.3428 17.7004 23.3358 17.4643C23.3293 17.2285 23.3323 16.8949 23.3464 16.4645C23.3608 16.0339 23.3673 15.7426 23.3673 15.5898C23.3673 15.0621 23.3776 14.4895 23.3982 13.8716C23.4192 13.2538 23.4362 12.7642 23.4504 12.4036C23.4646 12.0426 23.4712 11.6606 23.4712 11.258C23.4712 10.8553 23.4467 10.5395 23.3982 10.3104C23.3504 10.0815 23.2769 9.85926 23.1801 9.64386C23.0827 9.42867 22.9402 9.26221 22.7532 9.14404C22.5658 9.02601 22.3328 8.93235 22.0555 8.86276C21.3196 8.69623 20.3825 8.60614 19.2437 8.59214C16.6614 8.56442 15.0021 8.73117 14.2662 9.09217C13.9747 9.2447 13.7108 9.45311 13.4749 9.71673C13.2249 10.0223 13.1901 10.189 13.3705 10.2165C14.2037 10.3413 14.7935 10.6398 15.1407 11.1119L15.2658 11.362C15.3631 11.5425 15.4603 11.862 15.5575 12.3201C15.6546 12.7782 15.7173 13.2849 15.7448 13.84C15.8141 14.8537 15.8141 15.7215 15.7448 16.4434C15.6753 17.1655 15.6097 17.7277 15.547 18.1304C15.4843 18.533 15.3907 18.8593 15.2658 19.1091C15.1407 19.359 15.0575 19.5118 15.0157 19.5672C14.9741 19.6227 14.9394 19.6576 14.9118 19.6713C14.7313 19.7405 14.5436 19.7757 14.3494 19.7757C14.1548 19.7757 13.9189 19.6784 13.6413 19.4839C13.3638 19.2895 13.0757 19.0223 12.7771 18.6821C12.4786 18.3418 12.1418 17.8663 11.7668 17.2555C11.3921 16.6446 11.0033 15.9227 10.6007 15.0896L10.2675 14.4855C10.0593 14.0969 9.77478 13.531 9.41378 12.7883C9.05255 12.0454 8.73327 11.3267 8.45572 10.6325C8.34477 10.3409 8.17809 10.1189 7.95597 9.9662L7.85173 9.90354C7.78243 9.8481 7.67119 9.78924 7.51859 9.7265C7.36577 9.66384 7.20631 9.61891 7.03956 9.59126L1.33314 9.6327C0.750021 9.6327 0.354367 9.7648 0.146036 10.0286L0.0626598 10.1535C0.0210082 10.223 0 10.334 0 10.4868C0 10.6396 0.0416516 10.827 0.125028 11.049C0.95806 13.0068 1.86396 14.895 2.84274 16.7138C3.82152 18.5326 4.67206 19.9978 5.39385 21.1078C6.11579 22.2187 6.85166 23.2671 7.60146 24.2526C8.35126 25.2385 8.84758 25.8703 9.09041 26.1478C9.33354 26.4259 9.52451 26.6338 9.66332 26.7726L10.1841 27.2723C10.5173 27.6056 11.0066 28.0048 11.6522 28.4698C12.298 28.9351 13.013 29.3932 13.7974 29.8448C14.582 30.2957 15.4948 30.6636 16.5362 30.9482C17.5775 31.233 18.591 31.3473 19.5768 31.2922H21.9719C22.4577 31.2503 22.8257 31.0975 23.0758 30.8339L23.1587 30.7295C23.2144 30.6466 23.2666 30.5179 23.3147 30.3446C23.3634 30.1711 23.3876 29.9799 23.3876 29.7719C23.3734 29.175 23.4189 28.6371 23.5227 28.1581C23.6265 27.6793 23.7449 27.3183 23.8772 27.0752C24.0094 26.8323 24.1587 26.6273 24.3248 26.4611C24.4912 26.2946 24.6098 26.1937 24.6794 26.159C24.7486 26.124 24.8038 26.1003 24.8454 26.0861C25.1787 25.9751 25.5708 26.0826 26.0225 26.4092C26.4738 26.7355 26.8971 27.1383 27.293 27.6172C27.6888 28.0964 28.1642 28.6341 28.7195 29.231C29.2751 29.8281 29.7609 30.272 30.1773 30.564L30.5937 30.8139C30.8717 30.9806 31.2327 31.1334 31.6771 31.2722C32.1207 31.411 32.5093 31.4457 32.8431 31.3763L38.1744 31.2931C38.7017 31.2931 39.112 31.2058 39.4031 31.0326C39.6947 30.8591 39.868 30.6679 39.9239 30.4599C39.9796 30.2517 39.9826 30.0155 39.9344 29.7515C39.885 29.488 39.8364 29.3039 39.7879 29.1998Z" fill="#E5E5E5"/>
</g>
<defs>
<clipPath id="clip0_262_103">
<rect width="40" height="40" fill="white"/>
</clipPath>
</defs>
</svg>
