<svg width="40" height="40" viewBox="0 0 40 40" fill="none" xmlns="http://www.w3.org/2000/svg">
<path d="M20.3438 35.0781C15.8828 34.9375 11.6406 34.8281 7.39846 34.6641C6.4844 34.625 5.55471 34.4844 4.66408 34.2734C2.99221 33.8828 1.83596 32.875 1.24221 31.2266C0.765645 29.8984 0.59377 28.5312 0.46877 27.1406C0.195333 23.875 0.195333 20.6094 0.328145 17.3437C0.40627 15.5 0.453145 13.6406 0.945333 11.8516C1.24221 10.7812 1.60158 9.73436 2.46877 8.96093C3.38283 8.14061 4.45315 7.64843 5.6719 7.59374C9.01565 7.42968 12.3516 7.22655 15.6953 7.1953C20.1953 7.14843 24.7031 7.21093 29.2031 7.29686C31.1485 7.33593 33.1094 7.43749 35.0391 7.68749C36.8047 7.92186 38.125 8.90624 38.8281 10.625C39.3672 11.9453 39.5703 13.3281 39.6875 14.7344C39.9922 18.2578 40 21.7812 39.8281 25.3047C39.7422 27.0937 39.6563 28.8906 39.1485 30.6328C38.5703 32.6328 37.3438 33.9531 35.2969 34.4062C34.5 34.5781 33.6719 34.6406 32.8594 34.6719C28.6094 34.8203 24.3672 34.9531 20.3438 35.0781ZM16.0235 26.1953C19.586 24.3516 23.1094 22.5234 26.7031 20.6562C23.1172 18.7812 19.5938 16.9453 16.0235 15.0781C16.0235 18.8047 16.0235 22.4687 16.0235 26.1953Z" fill="#E5E5E5"/>
</svg>
