<?xml version="1.0" encoding="UTF-8" standalone="no"?>
<svg
   width="64pt"
   height="64pt"
   viewBox="0 0 22.577778 22.577778"
   version="1.1"
   id="svg831"
   inkscape:version="1.1.2 (1:1.1+202202050950+0a00cf5339)"
   sodipodi:docname="27 - Rope.svg"
   inkscape:export-filename="/media/taufikramadhan/Data/Tr Design Studio/Project Design/TR Creative Design/Icon Design/Project Hiring/Icon Icons/018 - Gym And Fitness/5 - Send/27 - Rope.png"
   inkscape:export-xdpi="576"
   inkscape:export-ydpi="576"
   xmlns:inkscape="http://www.inkscape.org/namespaces/inkscape"
   xmlns:sodipodi="http://sodipodi.sourceforge.net/DTD/sodipodi-0.dtd"
   xmlns="http://www.w3.org/2000/svg"
   xmlns:svg="http://www.w3.org/2000/svg"
   xmlns:rdf="http://www.w3.org/1999/02/22-rdf-syntax-ns#"
   xmlns:cc="http://creativecommons.org/ns#"
   xmlns:dc="http://purl.org/dc/elements/1.1/">
  <defs
     id="defs825">
    <pattern
       id="EMFhbasepattern"
       patternUnits="userSpaceOnUse"
       width="6"
       height="6"
       x="0"
       y="0" />
    <pattern
       id="EMFhbasepattern-9"
       patternUnits="userSpaceOnUse"
       width="6"
       height="6"
       x="0"
       y="0" />
    <pattern
       id="EMFhbasepattern-0"
       patternUnits="userSpaceOnUse"
       width="6"
       height="6"
       x="0"
       y="0" />
    <pattern
       id="EMFhbasepattern-7"
       patternUnits="userSpaceOnUse"
       width="6"
       height="6"
       x="0"
       y="0" />
    <pattern
       id="EMFhbasepattern-2"
       patternUnits="userSpaceOnUse"
       width="6"
       height="6"
       x="0"
       y="0" />
    <pattern
       id="EMFhbasepattern-98"
       patternUnits="userSpaceOnUse"
       width="6"
       height="6"
       x="0"
       y="0" />
    <pattern
       id="EMFhbasepattern-6"
       patternUnits="userSpaceOnUse"
       width="6"
       height="6"
       x="0"
       y="0" />
    <pattern
       id="EMFhbasepattern-01"
       patternUnits="userSpaceOnUse"
       width="6"
       height="6"
       x="0"
       y="0" />
    <pattern
       id="EMFhbasepattern-07"
       patternUnits="userSpaceOnUse"
       width="6"
       height="6"
       x="0"
       y="0" />
    <pattern
       id="EMFhbasepattern-8"
       patternUnits="userSpaceOnUse"
       width="6"
       height="6"
       x="0"
       y="0" />
    <pattern
       id="EMFhbasepattern-4"
       patternUnits="userSpaceOnUse"
       width="6"
       height="6"
       x="0"
       y="0" />
    <pattern
       id="EMFhbasepattern-40"
       patternUnits="userSpaceOnUse"
       width="6"
       height="6"
       x="0"
       y="0" />
    <pattern
       id="EMFhbasepattern-08"
       patternUnits="userSpaceOnUse"
       width="6"
       height="6"
       x="0"
       y="0" />
    <pattern
       id="EMFhbasepattern-04"
       patternUnits="userSpaceOnUse"
       width="6"
       height="6"
       x="0"
       y="0" />
    <pattern
       id="EMFhbasepattern-014"
       patternUnits="userSpaceOnUse"
       width="6"
       height="6"
       x="0"
       y="0" />
    <pattern
       id="EMFhbasepattern-27"
       patternUnits="userSpaceOnUse"
       width="6"
       height="6"
       x="0"
       y="0" />
    <pattern
       id="EMFhbasepattern-09"
       patternUnits="userSpaceOnUse"
       width="6"
       height="6"
       x="0"
       y="0" />
    <pattern
       id="EMFhbasepattern-5"
       patternUnits="userSpaceOnUse"
       width="6"
       height="6"
       x="0"
       y="0" />
    <pattern
       id="EMFhbasepattern-018"
       patternUnits="userSpaceOnUse"
       width="6"
       height="6"
       x="0"
       y="0" />
  </defs>
  <sodipodi:namedview
     inkscape:lockguides="true"
     id="base"
     pagecolor="#ffffff"
     bordercolor="#666666"
     borderopacity="1.0"
     inkscape:pageopacity="0.0"
     inkscape:pageshadow="2"
     inkscape:zoom="4.4249417"
     inkscape:cx="42.599431"
     inkscape:cy="53.786019"
     inkscape:document-units="pt"
     inkscape:current-layer="layer1"
     showgrid="false"
     units="pt"
     inkscape:window-width="1366"
     inkscape:window-height="705"
     inkscape:window-x="0"
     inkscape:window-y="31"
     inkscape:window-maximized="1"
     inkscape:pagecheckerboard="true"
     inkscape:showpageshadow="false"
     inkscape:object-paths="true"
     inkscape:snap-intersection-paths="true"
     inkscape:snap-smooth-nodes="true"
     inkscape:snap-midpoints="true"
     showguides="false"
     inkscape:snap-bbox="true"
     inkscape:bbox-nodes="true"
     inkscape:snap-nodes="false"
     inkscape:snap-global="true"
     inkscape:document-rotation="0">
    <inkscape:grid
       type="xygrid"
       id="grid1378" />
    <sodipodi:guide
       position="0.97013831,21.607643"
       orientation="78.000048,0"
       id="guide1380"
       inkscape:locked="true" />
    <sodipodi:guide
       position="0.97013831,0.97013129"
       orientation="0,78.000005"
       id="guide1382"
       inkscape:locked="true" />
    <sodipodi:guide
       position="21.607639,0.97013129"
       orientation="-78.000048,0"
       id="guide1384"
       inkscape:locked="true" />
    <sodipodi:guide
       position="21.607639,21.607643"
       orientation="0,-78.000005"
       id="guide1386"
       inkscape:locked="true" />
  </sodipodi:namedview>
  <metadata
     id="metadata828">
    <rdf:RDF>
      <cc:Work
         rdf:about="">
        <dc:format>image/svg+xml</dc:format>
        <dc:type
           rdf:resource="http://purl.org/dc/dcmitype/StillImage" />
      </cc:Work>
    </rdf:RDF>
  </metadata>
  <g
     inkscape:label="Icon"
     inkscape:groupmode="layer"
     id="layer1"
     transform="translate(0,-274.42223)">
    <path
       id="rect3600"
       style="color:#000000;display:inline;fill:#000000;stroke:none;stroke-width:1;stroke-linecap:round;stroke-linejoin:round;stroke-miterlimit:10;-inkscape-stroke:none"
       d="m 17.484096,276.09527 c -0.357462,0.37862 -0.486976,0.79414 -0.398093,1.15596 0.285248,1.16112 0.46003,3.80651 0.493557,5.33822 -0.207007,0.11863 -0.348736,0.34166 -0.348736,0.59421 v 0.70915 c 0,0.25466 0.144112,0.47954 0.353931,0.59746 v 0.81632 c 0,0.45448 0.299222,0.84573 0.709163,0.98583 v 0.42795 c 0,1.95426 -1.191107,3.35367 -3.063294,3.71857 -0.179183,0.0351 -0.296165,0.20825 -0.262365,0.38768 0.03402,0.18135 0.209195,0.30083 0.390299,0.26562 2.143514,-0.41777 3.597764,-2.13754 3.597764,-4.37187 v -0.37276 h 0.750075 c 3.99e-4,0.10414 0.0013,0.19351 0.0013,0.37276 0,1.98133 -0.807379,3.37626 -2.042412,4.25108 -1.235034,0.8748 -2.920515,1.21851 -4.660857,0.97997 l -0.431861,-0.0747 c 0.814089,-0.31905 1.530165,-0.95324 2.083975,-1.78396 0.811345,-1.21702 1.300779,-2.86762 1.30078,-4.68553 1e-6,-1.15661 -0.198853,-2.24559 -0.550055,-3.19773 -8.31e-4,-9.9e-4 -0.0018,-10e-4 -0.0027,-0.002 -0.872046,-2.2843 -3.102356,-3.78739 -5.7408368,-4.10173 -1.8820507,-0.25796 -3.7370499,0.1034 -5.13688,1.09493 -1.3998301,0.99153 -2.3223109,2.62523 -2.3223109,4.79138 0,0.20429 0.0011,0.30882 0.0013,0.42991 -0.4100125,0.13969 -0.7078634,0.53085 -0.7078634,0.98581 v 0.81567 c -0.2102018,0.11762 -0.3539316,0.34265 -0.3539316,0.59812 v 0.70721 c 0,0.25351 0.1418202,0.47774 0.3493858,0.59682 -0.033964,1.59907 -0.2167153,4.90742 -0.49615385,6.04476 -0.0888937,0.3618 0.0399807,0.7774 0.39744255,1.15596 0.3574617,0.37855 0.9660966,0.6702 1.8508353,0.6702 0.8847466,0 1.4907753,-0.29159 1.8482377,-0.6702 0.3574621,-0.37861 0.4863299,-0.79415 0.3974424,-1.15596 -0.279483,-1.13767 -0.4598887,-4.44756 -0.4935561,-6.04608 0.206923,-0.11938 0.3487363,-0.34302 0.3487363,-0.5955 v -0.70721 c 0,-0.25432 -0.1438831,-0.47812 -0.3532822,-0.59618 v -0.81761 c 0,-0.45495 -0.2991844,-0.8461 -0.7098113,-0.98581 v -0.42991 c 0,-1.65017 0.8542187,-2.8951 2.241134,-3.47112 0.6456831,-0.26819 1.4141835,-0.38758 2.2697087,-0.31367 -1.293629,1.21497 -1.9924102,3.03316 -1.9924082,5.20051 1.8e-6,1.81791 0.4874878,3.46852 1.2988316,4.68554 1.1895985,1.65021 2.771427,2.25502 4.820601,2.51584 1.879455,0.25595 3.731779,-0.10403 5.129736,-1.09427 1.39983,-0.99155 2.321661,-2.62781 2.321661,-4.79399 0,-0.21303 -0.0013,-0.29884 -0.0013,-0.42796 0.409941,-0.1401 0.708513,-0.53133 0.708513,-0.98581 v -0.81566 c 0.20978,-0.11776 0.353283,-0.34296 0.353283,-0.59812 v -0.70916 c 0,-0.25326 -0.141494,-0.47643 -0.348736,-0.59487 0.03379,-1.53186 0.210913,-4.1766 0.496154,-5.33754 0.0889,-0.36183 -0.03998,-0.77742 -0.397443,-1.15596 -0.357463,-0.37855 -0.966097,-0.67021 -1.850831,-0.67015 -0.884744,7e-5 -1.490771,0.29166 -1.848233,0.67026 z m 1.848238,-0.005 c 0.743813,0 1.146151,0.22782 1.367019,0.46173 0.124011,0.13132 0.184658,0.27952 0.21301,0.38769 -0.306321,0.0971 -0.90181,0.25262 -1.580029,0.25262 -0.67769,0 -1.271623,-0.15477 -1.577431,-0.25196 0.02829,-0.10821 0.08812,-0.25677 0.212359,-0.38835 0.220874,-0.23394 0.621266,-0.46173 1.365072,-0.46173 z m 1.485864,1.56898 c -0.241338,1.37718 -0.36625,3.47665 -0.397444,4.84009 h -2.176842 c -0.03093,-1.36317 -0.154029,-3.46225 -0.394845,-4.83945 0.372772,0.0972 0.89872,0.19742 1.483267,0.19742 0.585425,0 1.112362,-0.10063 1.485864,-0.19806 z m -11.2452864,1.10429 c 0.00163,2e-5 0.00351,2e-5 0.00515,0 2.4381834,0.28813 4.4301214,1.65465 5.2037694,3.67699 0.322293,0.87378 0.510442,1.88744 0.510442,2.96784 -2e-6,1.69809 -0.463685,3.23018 -1.188432,4.31732 -0.724746,1.08711 -1.687076,1.71575 -2.724299,1.71575 -0.249581,0 -0.494535,-0.0374 -0.733192,-0.10782 -0.157856,-0.0559 -0.298174,-0.10959 -0.41043,-0.15783 v 6.7e-4 c -0.5922375,-0.28118 -1.1320036,-0.77778 -1.5806782,-1.45079 -0.7247463,-1.08713 -1.1877797,-2.61922 -1.1877817,-4.31732 -2e-6,-2.2607 0.7879414,-4.00792 2.1969743,-5.06349 0.2377581,0.0538 0.4811486,0.12215 0.7286436,0.20522 -1.1527158,0.88651 -2.1748947,2.57733 -2.1748931,4.85763 1.4e-6,1.32496 0.3244682,2.52802 0.8760624,3.42436 0.5515942,0.89633 1.3579587,1.50471 2.2852947,1.50471 0.927335,0 1.731102,-0.60838 2.282696,-1.50471 0.551594,-0.89634 0.87866,-2.0994 0.87866,-3.42436 10e-7,-0.95402 -0.164305,-1.8509 -0.464109,-2.61291 -0.803625,-1.88943 -3.033856,-2.97698 -5.01696,-3.22859 -1.0329633,-0.1219 -1.9815939,0.005 -2.7905397,0.34094 -1.6178916,0.67195 -2.6509156,2.19815 -2.6509156,4.08482 v 0.37535 H 2.8715889 c -4.123e-4,-0.10275 -0.00194,-0.19883 -0.00194,-0.37535 0,-1.98133 0.8073791,-3.37431 2.0424129,-4.24912 0.9648698,-0.68346 2.6919367,-1.05271 3.5308741,-1.05271 0.3713235,-0.002 0.7492838,0.0212 1.1299836,0.0734 z m 3.3243594,3.28868 c -0.748394,0.79919 -1.396852,1.89058 -1.397544,3.35553 6.31e-4,1.32079 0.647384,2.55092 1.315716,3.47372 -0.149946,0.18272 -0.309442,0.33537 -0.476021,0.45654 -0.818906,-0.86752 -1.631509,-2.11786 -1.631983,-3.89325 3.21e-4,-1.31838 0.397741,-2.53514 0.981267,-3.30617 0.110816,-0.14699 0.08115,-0.35598 -0.06624,-0.46628 -0.146559,-0.10921 -0.353521,-0.0795 -0.463682,0.0662 -0.695926,0.91954 -1.116643,2.25713 -1.116996,3.70622 4.99e-4,1.87287 0.825797,3.24718 1.6677,4.19067 -0.108817,0.0254 -0.218961,0.0383 -0.329903,0.0383 -0.635327,0 -1.245889,-0.42263 -1.7183553,-1.19037 -0.4724664,-0.76779 -0.7779994,-1.86127 -0.7780007,-3.07564 -1.3e-6,-2.3243 1.18878,-3.92655 2.260618,-4.56475 0.67383,0.29662 1.328688,0.645 1.753424,1.20922 z m 0.361076,0.58964 c 0.375068,0.73987 0.617596,1.70314 0.617594,2.76586 -10e-7,1.11368 -0.257313,2.12588 -0.664352,2.87821 -0.560041,-0.82818 -1.045734,-1.86697 -1.04621,-2.87821 5.66e-4,-1.19292 0.477739,-2.07078 1.092968,-2.76586 z m 4.638128,0.54226 h 2.871717 v 0.70916 h -2.871717 z m 0.353282,1.3943 h 2.165152 v 0.72864 c 0,0.21343 -0.162589,0.37601 -0.376011,0.37601 H 18.62512 c -0.213424,0 -0.375363,-0.16258 -0.375363,-0.37601 z M 2.5358408,285.03235 H 3.952217 c 0.213415,0 0.3760116,0.16196 0.3760116,0.37537 v 0.72929 H 2.1630762 v -0.72929 c 0,-0.21341 0.1593497,-0.37537 0.3727646,-0.37537 z m -0.7260469,1.78914 h 2.871717 v 0.70723 h -2.871717 z m 0.3474376,1.39429 h 2.1761924 c 0.030244,1.44341 0.1519034,4.03816 0.4006895,5.54731 -0.3731038,-0.0978 -0.9008732,-0.1987 -1.4884609,-0.1987 -0.5877254,0 -1.116656,0.10095 -1.4904095,0.1987 0.2489489,-1.50993 0.3715153,-4.10439 0.4019885,-5.54731 z m 1.088421,6.0136 c 0.6772833,0 1.2708112,0.15478 1.5767816,0.25198 -0.028435,0.1087 -0.08862,0.25729 -0.2123591,0.38835 -0.2208743,0.23392 -0.620617,0.46173 -1.3644225,0.46173 -0.7438133,0 -1.1461518,-0.22784 -1.3670204,-0.46173 -0.124017,-0.13134 -0.1846577,-0.27953 -0.2130084,-0.38771 0.306322,-0.0971 0.9018099,-0.25262 1.5800288,-0.25262 z"
       sodipodi:nodetypes="sscsscscscccsccssccsscccsscscsscssssscsscscsscscccscscsscsscssscscssccccsccccssscccssccssssscccsccssccccccccccccssscccsccccccccccsssscsssccssccccccccsccscssscs" />
  </g>
</svg>
